<?xml version="1.0" encoding="utf-8"?>
<!-- Generator: Adobe Illustrator 17.1.0, SVG Export Plug-In . SVG Version: 6.00 Build 0)  -->
<!DOCTYPE svg PUBLIC "-//W3C//DTD SVG 1.1//EN" "http://www.w3.org/Graphics/SVG/1.1/DTD/svg11.dtd">
<svg version="1.1" id="Layer_1" xmlns="http://www.w3.org/2000/svg" xmlns:xlink="http://www.w3.org/1999/xlink" x="0px" y="0px"
	 viewBox="0 0 50 50" enable-background="new 0 0 50 50" xml:space="preserve">
<path fill="#FFFFFF" d="M48.8,10.4L48.8,10.4c-0.2-1.7-1.6-3-3.3-3H5.1c-1.7,0-3.1,1.3-3.3,3l0,0l0,0c0,0.1,0,0.2,0,0.3v28.6
	c0,1.8,1.5,3.3,3.3,3.3h40.3c1.8,0,3.3-1.5,3.3-3.3V10.7C48.8,10.6,48.7,10.5,48.8,10.4L48.8,10.4z M39.1,12.1L25.3,23.2L11.4,12.1
	H39.1z M44.1,37.9H6.5V14.2L23.8,28c0.4,0.3,0.9,0.5,1.5,0.5c0.5,0,1-0.2,1.5-0.5l17.3-13.9V37.9z"/>
</svg>
